<?xml version="1.0" encoding="utf-8"?>
<!-- Generator: Adobe Illustrator 22.1.0, SVG Export Plug-In . SVG Version: 6.00 Build 0)  -->
<svg version="1.1" id="Layer_2" xmlns="http://www.w3.org/2000/svg" xmlns:xlink="http://www.w3.org/1999/xlink" x="0px" y="0px"
	 viewBox="0 0 792 811.6" style="enable-background:new 0 0 792 811.6;" xml:space="preserve">
<style type="text/css">
	.st0{fill:#8FD081;}
	.st1{fill:#226A65;}
	.st2{fill:#1E5952;}
	.st3{fill:#2A6C2D;}
	.st4{fill:#258283;}
	.st5{fill:#8FD5DF;}
</style>
<polygon class="st0" points="404.2,16.6 750,193 437.2,356.5 437.2,311.4 680.7,190.4 404.2,52.6 127.5,190.5 371.1,311.8 
	371.1,356.6 58.1,193.2 "/>
<polygon class="st1" points="681.3,265 681.3,571.1 714.6,585.9 714.6,248.3 "/>
<path class="st2" d="M404.1,433.6l-33-14.7V109.7l33-15.9V433.6z M404.1,433.6L127.4,571.2l40.7,20.3l202.8-101.8v237.6L93.5,586.3
	l-1.2-338.6l-34.6-17.5V612l346.5,176.2v-315l236.4,118.2l40.7-20.3L404.1,433.6z"/>
<path class="st3" d="M127.5,190.5L404.2,52.6l276.5,137.8L639,211.1L404.1,93.8l-235,117.4L127.5,190.5z M58.1,193.2l-0.4,36.9
	L371.1,389v-32.4L58.1,193.2z M437.2,356.5v32.7L750,230.3V193L437.2,356.5z"/>
<path class="st4" d="M404.1,93.8l33.1,16.5v308.5l-33.1,14.7V93.8z M750,230.3l-35.5,18v337.6L437.9,727.1V490.1l-33.8-16.9v315
	L750,612V230.3z M93.5,586.3l34-15.1l-0.4-306l-34.7-17.6L93.5,586.3z"/>
<path class="st5" d="M681.3,571.1L404.1,433.6l33.1-14.7l244.1,119.4V571.1z M127.4,537.5v33.7l276.6-137.6l-33-14.7L127.4,537.5z
	 M437.9,693.3v33.9l276.6-141.2l-33.3-14.8L437.9,693.3z M370.9,727.4v-34.5L127.4,571.2l-34,15.1L370.9,727.4z"/>
</svg>
