<?xml version="1.0" standalone="no"?>
<!DOCTYPE svg PUBLIC "-//W3C//DTD SVG 20010904//EN"
 "http://www.w3.org/TR/2001/REC-SVG-20010904/DTD/svg10.dtd">
<svg version="1.0" xmlns="http://www.w3.org/2000/svg"
 width="1200.000000pt" height="1200.000000pt" viewBox="0 0 1200.000000 1200.000000"
 preserveAspectRatio="xMidYMid meet">
<metadata>
Created by potrace 1.16, written by Peter Selinger 2001-2019
</metadata>
<g transform="translate(0.000000,1200.000000) scale(0.100000,-0.100000)"
fill="#000000" stroke="none">
<path d="M0 6000 l0 -6000 6000 0 6000 0 0 6000 0 6000 -6000 0 -6000 0 0
-6000z m4880 5022 c585 -47 958 -104 1315 -202 210 -58 372 -120 564 -216 289
-144 521 -311 746 -538 504 -507 833 -1172 954 -1926 81 -503 71 -1088 -29
-1580 -63 -313 -152 -574 -295 -865 -235 -479 -558 -879 -953 -1179 -35 -27
-64 -47 -66 -45 -1 2 -89 195 -194 428 l-192 423 69 114 c262 425 411 898 473
1504 17 163 16 715 0 880 -89 870 -359 1495 -868 2004 -441 441 -967 695
-1614 781 -167 22 -496 30 -675 16 -242 -19 -516 -64 -802 -132 l-53 -12 0
-3103 c0 -2946 1 -3103 18 -3108 90 -28 601 -107 820 -127 193 -17 599 -7 770
20 303 46 572 130 821 255 51 26 97 44 101 39 20 -23 221 -496 214 -503 -23
-22 -401 -103 -649 -139 -382 -55 -334 -54 -2327 -58 l-1848 -4 0 99 0 100
223 5 c253 6 336 21 467 84 90 44 213 161 253 239 31 61 61 175 79 299 20 135
19 5485 0 5630 -18 130 -54 269 -85 332 -37 72 -140 164 -239 212 -143 70
-265 91 -530 91 l-168 0 0 101 0 100 1778 -4 c1217 -3 1823 -7 1922 -15z
m1820 -3111 l0 -100 -47 -6 c-334 -42 -523 -96 -620 -179 -179 -154 -176 -400
14 -903 94 -248 1947 -4503 1955 -4489 19 34 1746 4279 1803 4431 108 290 156
477 158 615 2 77 -1 92 -31 154 -23 49 -52 88 -100 135 -121 119 -272 178
-604 235 l-38 7 0 99 0 100 1125 0 1125 0 0 -99 c0 -112 9 -101 -95 -122 -74
-14 -242 -72 -309 -106 -207 -105 -403 -337 -571 -676 -44 -88 -613 -1463
-1365 -3297 l-1289 -3145 -102 0 -102 0 -1408 3240 c-774 1782 -1446 3317
-1493 3410 -95 191 -149 262 -266 356 -87 70 -242 149 -350 178 -69 18 -192
41 -312 56 l-48 6 0 100 0 99 1485 0 1485 0 0 -99z"/>
</g>
</svg>
